# xmcd
#
# Track frame offsets: 
#        150
#        27017
#        49017
#        69617
#        87435
#        110467
#        129725
#        149950
#        175522
#        195675
#
# Disc length: 2924 seconds
#
# Revision: 22
# Processed by: cddbd v1.5.2PL0 Copyright (c) Steve Scherf et al.
# Submitted via: ExactAudioCopy v1.3
#
DISCID=900b6a0a
DTITLE=L'Arc-en-Ciel - HEART
DYEAR=1998
DGENRE=J-Rock
TTITLE0=LORELEY
TTITLE1=winter fall
TTITLE2=Singin' in the Rain
TTITLE3=Shout at the Devil
TTITLE4=虹 (Album Version)
TTITLE5=birth!
TTITLE6=Promised land
TTITLE7=fate
TTITLE8=milky way
TTITLE9=あなた
EXTD=YEAR: 1998
EXTT0=
EXTT1=
EXTT2=
EXTT3=
EXTT4=
EXTT5=
EXTT6=
EXTT7=
EXTT8=
EXTT9=
PLAYORDER=
